<svg width="1280" height="720" viewBox="0 0 1280 720" fill="none" xmlns="http://www.w3.org/2000/svg">
  <rect width="1280" height="720" rx="34" fill="#FAF7FB"/>
  <rect x="48" y="40" width="1184" height="640" rx="30" fill="white" stroke="#E8DDEB"/>
  <text x="88" y="102" fill="#261B2F" font-family="Arial, 'Microsoft JhengHei', sans-serif" font-size="42" font-weight="800">EmploYA! AI 青年職涯與創業個案服務</text>
  <text x="88" y="142" fill="#6F6377" font-family="Arial, 'Microsoft JhengHei', sans-serif" font-size="22">從「我不知道怎麼辦」到「我知道下一步」</text>

  <g transform="translate(88 190)">
    <rect width="250" height="400" rx="28" fill="#211729"/>
    <rect x="18" y="20" width="214" height="360" rx="22" fill="#FFF9FC"/>
    <rect x="38" y="48" width="174" height="38" rx="19" fill="#FE3C72"/>
    <text x="58" y="74" fill="white" font-family="Arial, 'Microsoft JhengHei', sans-serif" font-size="18" font-weight="700">青年端 App</text>
    <rect x="38" y="114" width="174" height="70" rx="16" fill="#F3EBF7"/>
    <text x="54" y="142" fill="#261B2F" font-family="Arial, 'Microsoft JhengHei', sans-serif" font-size="16" font-weight="700">Persona</text>
    <text x="54" y="166" fill="#6F6377" font-family="Arial, 'Microsoft JhengHei', sans-serif" font-size="13">職涯階段 / 興趣 / 缺口</text>
    <rect x="38" y="204" width="174" height="70" rx="16" fill="#FFE8EF"/>
    <text x="54" y="232" fill="#261B2F" font-family="Arial, 'Microsoft JhengHei', sans-serif" font-size="16" font-weight="700">Swipe 探索</text>
    <text x="54" y="256" fill="#6F6377" font-family="Arial, 'Microsoft JhengHei', sans-serif" font-size="13">右滑 UX / 行銷 / 資料</text>
    <rect x="38" y="294" width="174" height="48" rx="16" fill="#EDEBFF"/>
    <text x="54" y="324" fill="#261B2F" font-family="Arial, 'Microsoft JhengHei', sans-serif" font-size="16" font-weight="700">AI Chat + RAG</text>
  </g>

  <g transform="translate(388 190)">
    <rect width="250" height="400" rx="28" fill="#FFFFFF" stroke="#E8DDEB"/>
    <text x="26" y="46" fill="#261B2F" font-family="Arial, 'Microsoft JhengHei', sans-serif" font-size="22" font-weight="800">AI Service Layer</text>
    <rect x="24" y="76" width="202" height="44" rx="14" fill="#FE3C72"/>
    <text x="42" y="104" fill="white" font-family="Arial, 'Microsoft JhengHei', sans-serif" font-size="16" font-weight="700">Persona Generator</text>
    <rect x="24" y="136" width="202" height="44" rx="14" fill="#FF8A65"/>
    <text x="42" y="164" fill="white" font-family="Arial, 'Microsoft JhengHei', sans-serif" font-size="16" font-weight="700">Skill Translator</text>
    <rect x="24" y="196" width="202" height="44" rx="14" fill="#5856D6"/>
    <text x="42" y="224" fill="white" font-family="Arial, 'Microsoft JhengHei', sans-serif" font-size="16" font-weight="700">RAG Knowledge Base</text>
    <rect x="24" y="256" width="202" height="44" rx="14" fill="#AF52DE"/>
    <text x="42" y="284" fill="white" font-family="Arial, 'Microsoft JhengHei', sans-serif" font-size="16" font-weight="700">Question Normalizer</text>
    <rect x="24" y="316" width="202" height="44" rx="14" fill="#34C759"/>
    <text x="42" y="344" fill="white" font-family="Arial, 'Microsoft JhengHei', sans-serif" font-size="16" font-weight="700">Counselor Brief</text>
  </g>

  <g transform="translate(688 190)">
    <rect width="226" height="400" rx="28" fill="#FFF9FC" stroke="#E8DDEB"/>
    <text x="26" y="46" fill="#261B2F" font-family="Arial, 'Microsoft JhengHei', sans-serif" font-size="22" font-weight="800">諮詢師端</text>
    <rect x="24" y="76" width="178" height="86" rx="18" fill="#F3EBF7"/>
    <text x="44" y="108" fill="#261B2F" font-family="Arial, 'Microsoft JhengHei', sans-serif" font-size="17" font-weight="700">個案摘要</text>
    <text x="44" y="134" fill="#6F6377" font-family="Arial, 'Microsoft JhengHei', sans-serif" font-size="13">Persona / 問題 / 互動</text>
    <rect x="24" y="184" width="178" height="86" rx="18" fill="#FFE8EF"/>
    <text x="44" y="216" fill="#261B2F" font-family="Arial, 'Microsoft JhengHei', sans-serif" font-size="17" font-weight="700">AI 初稿</text>
    <text x="44" y="242" fill="#6F6377" font-family="Arial, 'Microsoft JhengHei', sans-serif" font-size="13">可修改後回覆</text>
    <rect x="24" y="292" width="178" height="52" rx="18" fill="#FE3C72"/>
    <text x="48" y="324" fill="white" font-family="Arial, 'Microsoft JhengHei', sans-serif" font-size="16" font-weight="700">回存知識庫</text>
  </g>

  <g transform="translate(956 190)">
    <rect width="226" height="400" rx="28" fill="#FFF9FC" stroke="#E8DDEB"/>
    <text x="26" y="46" fill="#261B2F" font-family="Arial, 'Microsoft JhengHei', sans-serif" font-size="22" font-weight="800">政策端</text>
    <rect x="24" y="76" width="178" height="44" rx="14" fill="#EDEBFF"/>
    <text x="42" y="104" fill="#261B2F" font-family="Arial, 'Microsoft JhengHei', sans-serif" font-size="15" font-weight="700">熱門問題</text>
    <rect x="24" y="136" width="178" height="44" rx="14" fill="#FFE8EF"/>
    <text x="42" y="164" fill="#261B2F" font-family="Arial, 'Microsoft JhengHei', sans-serif" font-size="15" font-weight="700">職涯趨勢</text>
    <rect x="24" y="196" width="178" height="44" rx="14" fill="#FFF1E8"/>
    <text x="42" y="224" fill="#261B2F" font-family="Arial, 'Microsoft JhengHei', sans-serif" font-size="15" font-weight="700">技能缺口</text>
    <rect x="24" y="256" width="178" height="44" rx="14" fill="#EAF8EE"/>
    <text x="42" y="284" fill="#261B2F" font-family="Arial, 'Microsoft JhengHei', sans-serif" font-size="15" font-weight="700">創業需求</text>
    <rect x="24" y="316" width="178" height="44" rx="14" fill="#FE3C72"/>
    <text x="42" y="344" fill="white" font-family="Arial, 'Microsoft JhengHei', sans-serif" font-size="15" font-weight="700">AI 政策建議</text>
  </g>

  <path d="M342 390H380" stroke="#FE3C72" stroke-width="5" stroke-linecap="round"/>
  <path d="M642 390H680" stroke="#FE3C72" stroke-width="5" stroke-linecap="round"/>
  <path d="M918 390H948" stroke="#FE3C72" stroke-width="5" stroke-linecap="round"/>
  <circle cx="360" cy="390" r="8" fill="#FE3C72"/>
  <circle cx="660" cy="390" r="8" fill="#FE3C72"/>
  <circle cx="932" cy="390" r="8" fill="#FE3C72"/>
</svg>
